<svg
   version="1.1"
   id="svg265"
   xml:space="preserve"
   width="22"
   height="23.959791"
   xmlns:inkscape="http://www.inkscape.org/namespaces/inkscape"
   xmlns:sodipodi="http://sodipodi.sourceforge.net/DTD/sodipodi-0.dtd"
   xmlns="http://www.w3.org/2000/svg"
   xmlns:svg="http://www.w3.org/2000/svg"><defs
     id="defs269" /><sodipodi:namedview
     id="namedview267"
     pagecolor="#ffffff"
     bordercolor="#666666"
     borderopacity="1.0"
     inkscape:showpageshadow="2"
     inkscape:pageopacity="0.0"
     inkscape:pagecheckerboard="0"
     inkscape:deskcolor="#d1d1d1" /><inkscape:clipboard
     min="360.38825,491.46567"
     max="382.38825,515.42547"
     geom-min="361.38825,492.46567"
     geom-max="381.38825,514.42547" /><g
     id="g271"
     transform="matrix(3.7795276,0,0,3.7795276,-360.38825,-491.46568)"><g
       style="fill:none"
       id="g56"
       transform="matrix(0.26458333,0,0,0.26458333,96.616863,129.94726)"><path
         d="m 6,11.3264 c 2.76142,0 5,-2.23856 5,-4.99998 0,-2.76143 -2.23858,-5 -5,-5 -2.76142,0 -5,2.23857 -5,5 0,2.76142 2.23858,4.99998 5,4.99998 z"
         stroke="#000000"
         stroke-width="2"
         stroke-linecap="round"
         stroke-linejoin="round"
         id="path47" /></g></g><g
     id="g275"
     transform="translate(-0.5985266,15.017474)"><path
       d="m 21.598527,7.942317 v -2.5 c 0,-1.32609 -0.5268,-2.59786 -1.4645,-3.53554 -0.9376,-0.93768001 -2.2094,-1.46446001 -3.5355,-1.46446001 H 6.5985266 c -1.32608,0 -2.59785,0.52678 -3.53553,1.46446001 -0.93769,0.93768 -1.46447,2.20945 -1.46447,3.53554 v 2.5"
       stroke="#000000"
       stroke-width="2"
       stroke-linecap="round"
       stroke-linejoin="round"
       id="path96"
       style="fill:none" /></g></svg>
